<svg width="24" height="24" viewBox="0 0 24 24" fill="none" xmlns="http://www.w3.org/2000/svg">
<g clip-path="url(#clip0_5452_20206)">
<path fill-rule="evenodd" clip-rule="evenodd" d="M12 2C17.523 2 22 6.477 22 12C22 17.523 17.523 22 12 22C6.477 22 2 17.523 2 12C2 6.477 6.477 2 12 2ZM12 4C9.87827 4 7.84344 4.84285 6.34315 6.34315C4.84285 7.84344 4 9.87827 4 12C4 14.1217 4.84285 16.1566 6.34315 17.6569C7.84344 19.1571 9.87827 20 12 20C14.1217 20 16.1566 19.1571 17.6569 17.6569C19.1571 16.1566 20 14.1217 20 12C20 9.87827 19.1571 7.84344 17.6569 6.34315C16.1566 4.84285 14.1217 4 12 4Z" fill="#4C4C4C"/>
<path d="M10.9646 14.5411C10.8183 14.4862 10.7324 14.3889 10.7166 14.2606C10.6945 14.0916 10.8008 13.886 10.9682 13.7725C11.022 13.7357 11.1147 13.6877 11.2282 13.6881C11.2819 13.6877 11.3404 13.6989 11.4021 13.7271C11.6378 13.8343 11.7944 13.9605 11.8954 14.0737C11.8097 14.2288 11.4831 14.7399 10.9646 14.5411ZM12.1676 14.0151C12.0203 13.8158 11.7913 13.6409 11.5051 13.5116C11.416 13.4709 11.3219 13.4495 11.2243 13.4495C11.084 13.4495 10.9441 13.4941 10.8207 13.578C10.5783 13.7422 10.4313 14.0355 10.4633 14.2905C10.4896 14.5039 10.6328 14.6704 10.864 14.7582C10.9718 14.7989 11.0806 14.8203 11.1891 14.8203C11.6077 14.8203 11.8951 14.5064 12.0254 14.3269C12.0378 14.3567 12.042 14.3763 12.0418 14.3814C12.0427 14.4557 12.1062 14.5156 12.1838 14.5157C12.2629 14.5157 12.3264 14.4555 12.3266 14.3808C12.3264 14.3247 12.2935 14.1842 12.1676 14.0151Z" fill="#4D4D50"/>
<path d="M10.9643 14.5407C10.818 14.4857 10.7321 14.3884 10.7163 14.2601C10.6942 14.0911 10.8005 13.8855 10.9679 13.7721C11.0217 13.7353 11.1144 13.6872 11.2279 13.6877C11.2816 13.6872 11.3401 13.6984 11.4018 13.7266C11.6375 13.8339 11.7941 13.96 11.895 14.0732C11.8094 14.2284 11.4828 14.7395 10.9643 14.5407Z" fill="#BFBFBF"/>
<path d="M13.2475 9.57327L11.4526 11.2227C12.2904 10.834 12.9841 10.6542 13.2471 10.5947L13.2475 9.57327Z" fill="white"/>
<path d="M13.2469 10.8864C12.8451 10.9841 11.8659 11.2653 10.8013 11.8885L13.2466 13.9492L13.2469 10.8864Z" fill="#B3B0B0"/>
<path fill-rule="evenodd" clip-rule="evenodd" d="M13.8026 9H10.1419C10.0635 9 10.0005 9.06113 10 9.13524C10 9.20988 10.0635 9.27046 10.1424 9.27098L13.1683 9.27057L10.4614 11.7583C10.4486 11.7707 10.4377 11.7851 10.4299 11.8017L10.428 11.8064L10.4263 11.8126C10.4261 11.813 10.426 11.8134 10.4258 11.8139C10.424 11.8184 10.4216 11.8244 10.4207 11.8312C10.4207 11.8312 10.4205 11.8347 10.4199 11.8367L10.4193 11.8392C10.4193 11.8396 10.4192 11.8401 10.4192 11.8405C10.4188 11.8446 10.4183 11.8492 10.4183 11.8557V11.8574C10.4183 11.8618 10.4189 11.8669 10.4193 11.8691C10.4195 11.87 10.4196 11.871 10.4197 11.8721C10.4199 11.874 10.4201 11.876 10.4205 11.8777V11.8803C10.4217 11.8871 10.4229 11.8922 10.4253 11.896C10.4259 11.8989 10.4272 11.902 10.4285 11.9051C10.4289 11.906 10.4293 11.9069 10.4297 11.9079C10.431 11.9118 10.433 11.915 10.4347 11.9176C10.4351 11.9183 10.4356 11.919 10.4359 11.9196C10.4363 11.9205 10.4368 11.9214 10.4373 11.9225C10.4382 11.9241 10.4391 11.926 10.4398 11.928C10.4409 11.9291 10.4417 11.9301 10.4425 11.931C10.4438 11.9324 10.4448 11.9336 10.4461 11.9344C10.4471 11.9362 10.4498 11.9396 10.4498 11.9396L10.4522 11.9427L10.4563 11.9474C10.4566 11.9477 10.4568 11.9479 10.4571 11.9481C10.458 11.949 10.4585 11.9494 10.4601 11.9496L10.4669 11.9581L13.2491 14.312V14.6833C13.2487 14.758 13.3126 14.8187 13.3909 14.8188C13.4704 14.8188 13.5331 14.758 13.5331 14.6836L13.5333 9.27057L13.7366 9.27098L13.8026 9.27097V9ZM11.4544 11.222C12.292 10.8337 12.9862 10.6539 13.2489 10.5941L13.2491 9.57286L11.4544 11.222ZM10.8033 11.8868L13.2487 13.9472L13.2489 10.8846C12.8472 10.982 11.8677 11.2635 10.8033 11.8868Z" fill="#4D4D50"/>
<circle cx="12" cy="12" r="6" stroke="#4C4C4C" stroke-linecap="round"/>
<circle cx="12" cy="12" r="8" stroke="white" stroke-linecap="round" stroke-dasharray="2 2"/>
</g>
<defs>
<clipPath id="clip0_5452_20206">
<rect width="24" height="24" fill="white"/>
</clipPath>
</defs>
</svg>
