<?xml version="1.0" encoding="UTF-8"?>
<svg version="1.1" xmlns="http://www.w3.org/2000/svg" width="96" height="96">
<path d="M0 0 C24.28571429 -0.47619048 24.28571429 -0.47619048 31 4 C31 4.66 31 5.32 31 6 C32.32 6 33.64 6 35 6 C35.33 5.01 35.66 4.02 36 3 C42.57566675 -0.48123534 50.19401623 -0.13837856 57.4375 -0.0625 C58.26443359 -0.05798828 59.09136719 -0.05347656 59.94335938 -0.04882812 C61.96227146 -0.03715811 63.98114574 -0.01922718 66 0 C66.99 2.475 66.99 2.475 68 5 C70.31 5.33 72.62 5.66 75 6 C75 25.14 75 44.28 75 64 C63.78 64 52.56 64 41 64 C41 64.66 41 65.32 41 66 C37.76085771 68.15942819 36.75140267 68.27232978 33 68.25 C32.13375 68.25515625 31.2675 68.2603125 30.375 68.265625 C28 68 28 68 25 66 C25 65.34 25 64.68 25 64 C13.78 64 2.56 64 -9 64 C-9 44.86 -9 25.72 -9 6 C-5.535 5.505 -5.535 5.505 -2 5 C-1.34 3.35 -0.68 1.7 0 0 Z " fill="#EEE9E7" transform="translate(15,14)"/>
<path d="M0 0 C0.82693359 0.00451172 1.65386719 0.00902344 2.50585938 0.01367188 C4.52477146 0.02534189 6.54364574 0.04327282 8.5625 0.0625 C11.57659294 6.7373079 11.96469862 12.2927282 11.85546875 19.5625 C11.85122391 20.63878662 11.84697906 21.71507324 11.84260559 22.82397461 C11.82591025 26.2370787 11.78827443 29.64957655 11.75 33.0625 C11.73494137 35.38671018 11.72125503 37.71092968 11.70898438 40.03515625 C11.67603674 45.71114181 11.62592902 51.38677757 11.5625 57.0625 C10.9545459 56.41200684 10.3465918 55.76151367 9.72021484 55.09130859 C7.01258141 52.54543466 5.8450908 52.57727124 2.1875 52.6875 C-6.11991407 52.97325871 -14.93822216 53.31286108 -22.4375 57.0625 C-22.4375 39.5725 -22.4375 22.0825 -22.4375 4.0625 C-14.71155337 0.19952669 -8.40592422 -0.08805561 0 0 Z " fill="#EDE9E7" transform="translate(72.4375,13.9375)"/>
<path d="M0 0 C2.31 0 4.62 0 7 0 C6.67 17.16 6.34 34.32 6 52 C29.76 52 53.52 52 78 52 C77.67 34.84 77.34 17.68 77 0 C79.31 0 81.62 0 84 0 C84 19.14 84 38.28 84 58 C72.78 58 61.56 58 50 58 C50 58.66 50 59.32 50 60 C46.76085771 62.15942819 45.75140267 62.27232978 42 62.25 C41.13375 62.25515625 40.2675 62.2603125 39.375 62.265625 C37 62 37 62 34 60 C34 59.34 34 58.68 34 58 C22.78 58 11.56 58 0 58 C0 38.86 0 19.72 0 0 Z " fill="#D22E2E" transform="translate(6,20)"/>
<path d="M0 0 C1.32 0 2.64 0 4 0 C4.33 16.5 4.66 33 5 50 C7.31 49.01 9.62 48.02 12 47 C15.31594905 46.30719406 18.6199164 46.17211175 22 46 C23.04542969 45.91234375 24.09085938 45.8246875 25.16796875 45.734375 C26.22628906 45.67765625 27.28460938 45.6209375 28.375 45.5625 C29.35210937 45.50191406 30.32921875 45.44132812 31.3359375 45.37890625 C34 46 34 46 38 52 C14.24 52 -9.52 52 -34 52 C-30 46 -30 46 -27.22265625 45.34375 C-26.17980469 45.3953125 -25.13695312 45.446875 -24.0625 45.5 C-22.92167969 45.55414063 -21.78085937 45.60828125 -20.60546875 45.6640625 C-5.37531486 47.08312343 -5.37531486 47.08312343 -1 50 C-0.67 33.5 -0.34 17 0 0 Z " fill="#BDABA5" transform="translate(46,20)"/>
<path d="M0 0 C0.33 0 0.66 0 1 0 C1.10134735 7.47465445 1.1714435 14.949132 1.21972656 22.42431641 C1.23985272 24.96767803 1.26715637 27.51099333 1.30175781 30.05419922 C1.3502297 33.70812404 1.37295916 37.36143756 1.390625 41.015625 C1.41127014 42.15429016 1.43191528 43.29295532 1.45318604 44.46612549 C1.45348816 45.52692322 1.45379028 46.58772095 1.45410156 47.68066406 C1.46298401 48.61332092 1.47186646 49.54597778 1.48101807 50.50689697 C0.86075435 53.72170629 -0.54373399 54.92255693 -3 57 C-3.07634871 50.1682047 -3.12872499 43.33652032 -3.16479492 36.50439453 C-3.17983911 34.1824126 -3.20027945 31.86045888 -3.22631836 29.53857422 C-3.26289345 26.19231177 -3.27977054 22.84642656 -3.29296875 19.5 C-3.30845261 18.4694751 -3.32393646 17.4389502 -3.33988953 16.37719727 C-3.34131809 10.1961523 -2.54949369 5.64593759 0 0 Z " fill="#D6CAC6" transform="translate(15,14)"/>
<path d="M0 0 C3.75493298 3.75493298 4.12267634 8.06462421 4.22705078 13.17919922 C4.22673622 15.22105603 4.21556155 17.26293107 4.1953125 19.3046875 C4.1924826 20.38380402 4.18965271 21.46292053 4.18673706 22.57473755 C4.1755766 26.00827299 4.1504793 29.44154391 4.125 32.875 C4.11496487 35.20832956 4.10583995 37.54166322 4.09765625 39.875 C4.07565079 45.583423 4.04221427 51.29169259 4 57 C1.54373399 54.92255693 0.13924565 53.72170629 -0.48101807 50.50689697 C-0.47213562 49.57424011 -0.46325317 48.64158325 -0.45410156 47.68066406 C-0.45379944 46.61986633 -0.45349731 45.5590686 -0.45318604 44.46612549 C-0.43254089 43.32746033 -0.41189575 42.18879517 -0.390625 41.015625 C-0.38496521 39.84489441 -0.37930542 38.67416382 -0.37347412 37.46795654 C-0.35108125 33.728222 -0.3008768 29.98944503 -0.25 26.25 C-0.22993889 23.71485758 -0.21168744 21.17970015 -0.1953125 18.64453125 C-0.15120678 12.42936071 -0.08426454 6.21474876 0 0 Z " fill="#D6CAC6" transform="translate(80,14)"/>
<path d="M0 0 C7.36259293 -0.22424141 13.87049629 0.09879901 21 2 C21.33 3.65 21.66 5.3 22 7 C14.74 6.01 7.48 5.02 0 4 C0 2.68 0 1.36 0 0 Z " fill="#C0AFA9" transform="translate(20,52)"/>
<path d="M0 0 C7.36259293 -0.22424141 13.87049629 0.09879901 21 2 C21.33 3.65 21.66 5.3 22 7 C14.74 6.01 7.48 5.02 0 4 C0 2.68 0 1.36 0 0 Z " fill="#C0AFA9" transform="translate(20,44)"/>
<path d="M0 0 C7.36259293 -0.22424141 13.87049629 0.09879901 21 2 C21.33 3.65 21.66 5.3 22 7 C14.74 6.01 7.48 5.02 0 4 C0 2.68 0 1.36 0 0 Z " fill="#C0AFA9" transform="translate(20,36)"/>
<path d="M0 0 C7.36259293 -0.22424141 13.87049629 0.09879901 21 2 C21.33 3.65 21.66 5.3 22 7 C14.74 6.01 7.48 5.02 0 4 C0 2.68 0 1.36 0 0 Z " fill="#C0AFA9" transform="translate(20,28)"/>
<path d="M0 0 C7.36259293 -0.22424141 13.87049629 0.09879901 21 2 C21.33 3.65 21.66 5.3 22 7 C14.74 6.01 7.48 5.02 0 4 C0 2.68 0 1.36 0 0 Z " fill="#C0AFA9" transform="translate(20,20)"/>
<path d="M0 0 C0 1.32 0 2.64 0 4 C-1.25296875 4.13277344 -2.5059375 4.26554687 -3.796875 4.40234375 C-5.44793246 4.58058291 -7.09897327 4.7589764 -8.75 4.9375 C-9.9875 5.06801758 -9.9875 5.06801758 -11.25 5.20117188 C-12.04921875 5.28818359 -12.8484375 5.37519531 -13.671875 5.46484375 C-14.4050293 5.543396 -15.13818359 5.62194824 -15.89355469 5.70288086 C-17.98147994 5.9973877 -19.96552768 6.45117496 -22 7 C-22 5.35 -22 3.7 -22 2 C-14.56340812 -0.01670288 -7.68395543 -0.2137731 0 0 Z " fill="#C0AFA9" transform="translate(76,44)"/>
<path d="M0 0 C0 1.32 0 2.64 0 4 C-1.25296875 4.13277344 -2.5059375 4.26554687 -3.796875 4.40234375 C-5.44793246 4.58058291 -7.09897327 4.7589764 -8.75 4.9375 C-9.9875 5.06801758 -9.9875 5.06801758 -11.25 5.20117188 C-12.04921875 5.28818359 -12.8484375 5.37519531 -13.671875 5.46484375 C-14.4050293 5.543396 -15.13818359 5.62194824 -15.89355469 5.70288086 C-17.98147994 5.9973877 -19.96552768 6.45117496 -22 7 C-22 5.35 -22 3.7 -22 2 C-14.56340812 -0.01670288 -7.68395543 -0.2137731 0 0 Z " fill="#C0AFA9" transform="translate(76,36)"/>
<path d="M0 0 C0 1.32 0 2.64 0 4 C-1.25296875 4.13277344 -2.5059375 4.26554687 -3.796875 4.40234375 C-5.44793246 4.58058291 -7.09897327 4.7589764 -8.75 4.9375 C-9.9875 5.06801758 -9.9875 5.06801758 -11.25 5.20117188 C-12.04921875 5.28818359 -12.8484375 5.37519531 -13.671875 5.46484375 C-14.4050293 5.543396 -15.13818359 5.62194824 -15.89355469 5.70288086 C-17.98147994 5.9973877 -19.96552768 6.45117496 -22 7 C-22 5.35 -22 3.7 -22 2 C-14.56340812 -0.01670288 -7.68395543 -0.2137731 0 0 Z " fill="#C0AFA9" transform="translate(76,28)"/>
<path d="M0 0 C0 1.32 0 2.64 0 4 C-1.25296875 4.13277344 -2.5059375 4.26554687 -3.796875 4.40234375 C-5.44793246 4.58058291 -7.09897327 4.7589764 -8.75 4.9375 C-9.9875 5.06801758 -9.9875 5.06801758 -11.25 5.20117188 C-12.04921875 5.28818359 -12.8484375 5.37519531 -13.671875 5.46484375 C-14.4050293 5.543396 -15.13818359 5.62194824 -15.89355469 5.70288086 C-17.98147994 5.9973877 -19.96552768 6.45117496 -22 7 C-22 5.35 -22 3.7 -22 2 C-14.56340812 -0.01670288 -7.68395543 -0.2137731 0 0 Z " fill="#C0AFA9" transform="translate(76,20)"/>
<path d="M0 0 C3.96 0 7.92 0 12 0 C11.34 1.65 10.68 3.3 10 5 C7.69 5.33 5.38 5.66 3 6 C0 2.25 0 2.25 0 0 Z " fill="#510909" transform="translate(42,72)"/>
<path d="M0 0 C0 1.32 0 2.64 0 4 C-3.3 4.33 -6.6 4.66 -10 5 C-10 3.68 -10 2.36 -10 1 C-6.61981469 -0.04005702 -3.5219721 -0.08004482 0 0 Z " fill="#BEADA8" transform="translate(64,53)"/>
</svg>
